<mxfile host="app.diagrams.net" modified="2024-01-12T10:57:57.937Z" agent="Mozilla/5.0 (Macintosh; Intel Mac OS X 10_15_7) AppleWebKit/605.1.15 (KHTML, like Gecko) Version/17.1.2 Safari/605.1.15" etag="CdwC7WuCo9u7N6Dqoaed" version="22.1.18" type="device">
  <diagram name="Page-1" id="CJYWuD-pApp3X6JHcklv">
    <mxGraphModel dx="1242" dy="827" grid="1" gridSize="10" guides="1" tooltips="1" connect="1" arrows="1" fold="1" page="1" pageScale="1" pageWidth="827" pageHeight="1169" background="#ffffff" math="0" shadow="0">
      <root>
        <mxCell id="0" />
        <mxCell id="1" parent="0" />
        <mxCell id="fWN6U2PsKUXUR3X5_iIi-8" value="" style="rounded=1;whiteSpace=wrap;html=1;fillColor=#f0f6ff;strokeColor=#f0f6ff;verticalAlign=bottom;" parent="1" vertex="1">
          <mxGeometry x="150" y="82.5" width="1460" height="1057.5" as="geometry" />
        </mxCell>
        <mxCell id="fWN6U2PsKUXUR3X5_iIi-105" value="" style="edgeStyle=orthogonalEdgeStyle;html=1;verticalAlign=bottom;endArrow=none;endSize=8;strokeColor=#666666;rounded=1;endFill=0;dashed=1;entryX=0.5;entryY=0;entryDx=0;entryDy=0;" parent="1" source="fWN6U2PsKUXUR3X5_iIi-15" target="fWN6U2PsKUXUR3X5_iIi-17" edge="1">
          <mxGeometry relative="1" as="geometry">
            <mxPoint x="810" y="900.5714285714286" as="targetPoint" />
            <mxPoint x="810" y="190" as="sourcePoint" />
          </mxGeometry>
        </mxCell>
        <mxCell id="fWN6U2PsKUXUR3X5_iIi-5" value="" style="shape=actor;whiteSpace=wrap;html=1;fillColor=#0a6ec7;strokeColor=#0a6ec7;" parent="1" vertex="1">
          <mxGeometry x="80" y="377" width="30" height="45" as="geometry" />
        </mxCell>
        <mxCell id="fWN6U2PsKUXUR3X5_iIi-9" value="GitHub Actions" style="rounded=1;whiteSpace=wrap;html=1;arcSize=40;fontColor=#000000;fillColor=#FFFFFF;strokeColor=#666666;" parent="1" vertex="1">
          <mxGeometry x="190" y="150" width="120" height="40" as="geometry" />
        </mxCell>
        <mxCell id="fWN6U2PsKUXUR3X5_iIi-13" value="GitHub Actions" style="rounded=1;whiteSpace=wrap;html=1;arcSize=40;fontColor=#000000;fillColor=#FFFFFF;strokeColor=#666666;" parent="1" vertex="1">
          <mxGeometry x="190" y="1020" width="120" height="40" as="geometry" />
        </mxCell>
        <mxCell id="fWN6U2PsKUXUR3X5_iIi-15" value="unit tests job" style="rounded=1;whiteSpace=wrap;html=1;arcSize=40;fontColor=#000000;fillColor=#FFFFFF;strokeColor=#666666;" parent="1" vertex="1">
          <mxGeometry x="750" y="150" width="120" height="40" as="geometry" />
        </mxCell>
        <mxCell id="fWN6U2PsKUXUR3X5_iIi-17" value="unit tests job" style="rounded=1;whiteSpace=wrap;html=1;arcSize=40;fontColor=#000000;fillColor=#FFFFFF;strokeColor=#666666;" parent="1" vertex="1">
          <mxGeometry x="750" y="1020" width="120" height="40" as="geometry" />
        </mxCell>
        <mxCell id="fWN6U2PsKUXUR3X5_iIi-18" value="stress tests&lt;br&gt;E2E tests jobs" style="rounded=1;whiteSpace=wrap;html=1;arcSize=40;fontColor=#000000;fillColor=#FFFFFF;strokeColor=#666666;" parent="1" vertex="1">
          <mxGeometry x="890" y="150" width="120" height="40" as="geometry" />
        </mxCell>
        <mxCell id="fWN6U2PsKUXUR3X5_iIi-20" value="E2E tests jobs" style="rounded=1;whiteSpace=wrap;html=1;arcSize=40;fontColor=#000000;fillColor=#FFFFFF;strokeColor=#666666;" parent="1" vertex="1">
          <mxGeometry x="890" y="1020" width="120" height="40" as="geometry" />
        </mxCell>
        <mxCell id="fWN6U2PsKUXUR3X5_iIi-21" value="GitHub repository" style="rounded=1;whiteSpace=wrap;html=1;arcSize=40;fontColor=#000000;fillColor=#FFFFFF;strokeColor=#666666;" parent="1" vertex="1">
          <mxGeometry x="1030" y="150" width="120" height="40" as="geometry" />
        </mxCell>
        <mxCell id="fWN6U2PsKUXUR3X5_iIi-22" value="" style="edgeStyle=orthogonalEdgeStyle;html=1;verticalAlign=bottom;endArrow=none;endSize=8;strokeColor=#666666;rounded=1;entryX=0.5;entryY=0;entryDx=0;entryDy=0;endFill=0;dashed=1;" parent="1" source="fWN6U2PsKUXUR3X5_iIi-21" target="fWN6U2PsKUXUR3X5_iIi-23" edge="1">
          <mxGeometry relative="1" as="geometry">
            <mxPoint x="1090" y="250" as="targetPoint" />
          </mxGeometry>
        </mxCell>
        <mxCell id="fWN6U2PsKUXUR3X5_iIi-23" value="GitHub repository" style="rounded=1;whiteSpace=wrap;html=1;arcSize=40;fontColor=#000000;fillColor=#FFFFFF;strokeColor=#666666;" parent="1" vertex="1">
          <mxGeometry x="1030" y="1020" width="120" height="40" as="geometry" />
        </mxCell>
        <mxCell id="fWN6U2PsKUXUR3X5_iIi-24" value="post-btp-manager-build" style="rounded=1;whiteSpace=wrap;html=1;arcSize=40;fontColor=#000000;fillColor=#FFFFFF;strokeColor=#666666;" parent="1" vertex="1">
          <mxGeometry x="1170" y="150" width="120" height="40" as="geometry" />
        </mxCell>
        <mxCell id="fWN6U2PsKUXUR3X5_iIi-25" value="" style="edgeStyle=orthogonalEdgeStyle;html=1;verticalAlign=bottom;endArrow=none;endSize=8;strokeColor=#666666;rounded=1;entryX=0.5;entryY=0;entryDx=0;entryDy=0;endFill=0;dashed=1;" parent="1" source="fWN6U2PsKUXUR3X5_iIi-24" target="fWN6U2PsKUXUR3X5_iIi-26" edge="1">
          <mxGeometry relative="1" as="geometry">
            <mxPoint x="1230" y="250" as="targetPoint" />
          </mxGeometry>
        </mxCell>
        <mxCell id="fWN6U2PsKUXUR3X5_iIi-26" value="post-btp-manager-build" style="rounded=1;whiteSpace=wrap;html=1;arcSize=40;fontColor=#000000;fillColor=#FFFFFF;strokeColor=#666666;" parent="1" vertex="1">
          <mxGeometry x="1170" y="1020" width="120" height="40" as="geometry" />
        </mxCell>
        <mxCell id="fWN6U2PsKUXUR3X5_iIi-30" value="Docker registry" style="rounded=1;whiteSpace=wrap;html=1;arcSize=40;fontColor=#000000;fillColor=#FFFFFF;strokeColor=#666666;" parent="1" vertex="1">
          <mxGeometry x="1320" y="150" width="120" height="40" as="geometry" />
        </mxCell>
        <mxCell id="fWN6U2PsKUXUR3X5_iIi-32" value="Docker registry" style="rounded=1;whiteSpace=wrap;html=1;arcSize=40;fontColor=#000000;fillColor=#FFFFFF;strokeColor=#666666;" parent="1" vertex="1">
          <mxGeometry x="1320" y="1020" width="120" height="40" as="geometry" />
        </mxCell>
        <mxCell id="fWN6U2PsKUXUR3X5_iIi-58" value="" style="edgeStyle=elbowEdgeStyle;rounded=1;orthogonalLoop=1;jettySize=auto;html=1;elbow=vertical;strokeColor=#666666;" parent="1" target="JRshGmQCwWdGFa1VaoXA-8" edge="1">
          <mxGeometry relative="1" as="geometry">
            <mxPoint x="255" y="240.07" as="sourcePoint" />
            <mxPoint x="290" y="240.07" as="targetPoint" />
          </mxGeometry>
        </mxCell>
        <mxCell id="fWN6U2PsKUXUR3X5_iIi-95" value="" style="edgeStyle=elbowEdgeStyle;rounded=1;orthogonalLoop=1;jettySize=auto;html=1;elbow=vertical;strokeColor=#666666;" parent="1" edge="1">
          <mxGeometry relative="1" as="geometry">
            <mxPoint x="245" y="530" as="sourcePoint" />
            <mxPoint x="1090" y="531" as="targetPoint" />
          </mxGeometry>
        </mxCell>
        <mxCell id="fWN6U2PsKUXUR3X5_iIi-39" value="" style="edgeStyle=orthogonalEdgeStyle;rounded=1;orthogonalLoop=1;jettySize=auto;html=1;strokeColor=#666666;" parent="1" target="fWN6U2PsKUXUR3X5_iIi-36" edge="1">
          <mxGeometry relative="1" as="geometry">
            <Array as="points">
              <mxPoint x="210" y="365" />
              <mxPoint x="210" y="365" />
            </Array>
            <mxPoint x="120" y="365" as="sourcePoint" />
          </mxGeometry>
        </mxCell>
        <mxCell id="fWN6U2PsKUXUR3X5_iIi-51" value="Create a release" style="text;html=1;strokeColor=none;fillColor=none;align=center;verticalAlign=middle;whiteSpace=wrap;rounded=0;fontSize=15;fontStyle=1" parent="1" vertex="1">
          <mxGeometry x="827" y="100" width="130" height="30" as="geometry" />
        </mxCell>
        <mxCell id="fWN6U2PsKUXUR3X5_iIi-70" value="" style="edgeStyle=elbowEdgeStyle;rounded=1;orthogonalLoop=1;jettySize=auto;html=1;elbow=vertical;strokeColor=#666666;" parent="1" edge="1">
          <mxGeometry relative="1" as="geometry">
            <mxPoint x="1227.5" y="680" as="sourcePoint" />
            <mxPoint x="1380" y="680" as="targetPoint" />
          </mxGeometry>
        </mxCell>
        <mxCell id="fWN6U2PsKUXUR3X5_iIi-62" value="" style="html=1;points=[];perimeter=orthogonalPerimeter;outlineConnect=0;targetShapes=umlLifeline;portConstraint=eastwest;newEdgeStyle={&quot;edgeStyle&quot;:&quot;elbowEdgeStyle&quot;,&quot;elbow&quot;:&quot;vertical&quot;,&quot;curved&quot;:0,&quot;rounded&quot;:0};" parent="1" vertex="1">
          <mxGeometry x="1225" y="570" width="10" height="110" as="geometry" />
        </mxCell>
        <mxCell id="fWN6U2PsKUXUR3X5_iIi-66" value="" style="edgeStyle=elbowEdgeStyle;rounded=1;orthogonalLoop=1;jettySize=auto;html=1;elbow=vertical;verticalAlign=bottom;strokeColor=#666666;" parent="1" target="fWN6U2PsKUXUR3X5_iIi-62" edge="1">
          <mxGeometry relative="1" as="geometry">
            <mxPoint x="1090" y="570" as="sourcePoint" />
            <Array as="points">
              <mxPoint x="1160" y="570" />
            </Array>
          </mxGeometry>
        </mxCell>
        <mxCell id="fWN6U2PsKUXUR3X5_iIi-68" value="triggers building binary image" style="text;html=1;strokeColor=none;fillColor=none;align=center;verticalAlign=middle;whiteSpace=wrap;rounded=0;" parent="1" vertex="1">
          <mxGeometry x="1110" y="540" width="110" height="30" as="geometry" />
        </mxCell>
        <mxCell id="fWN6U2PsKUXUR3X5_iIi-110" value="" style="edgeStyle=elbowEdgeStyle;rounded=1;orthogonalLoop=1;jettySize=auto;html=1;elbow=vertical;strokeColor=#666666;exitX=1;exitY=1;exitDx=0;exitDy=0;" parent="1" target="fWN6U2PsKUXUR3X5_iIi-98" edge="1" source="fWN6U2PsKUXUR3X5_iIi-112">
          <mxGeometry relative="1" as="geometry">
            <mxPoint x="1510" y="863" as="sourcePoint" />
            <mxPoint x="994" y="862.5" as="targetPoint" />
          </mxGeometry>
        </mxCell>
        <mxCell id="93VO_P9OMc8iU-WbTYkY-9" value="" style="edgeStyle=elbowEdgeStyle;rounded=1;orthogonalLoop=1;jettySize=auto;html=1;elbow=vertical;strokeColor=#666666;" parent="1" target="JRshGmQCwWdGFa1VaoXA-21" edge="1">
          <mxGeometry relative="1" as="geometry">
            <mxPoint x="255" y="320.5" as="sourcePoint" />
            <mxPoint x="525" y="320.57446808510633" as="targetPoint" />
          </mxGeometry>
        </mxCell>
        <mxCell id="fWN6U2PsKUXUR3X5_iIi-108" value="" style="html=1;verticalAlign=bottom;endArrow=open;endSize=8;edgeStyle=elbowEdgeStyle;elbow=vertical;rounded=1;dashed=1;strokeColor=#666666;" parent="1" source="JRshGmQCwWdGFa1VaoXA-21" target="fWN6U2PsKUXUR3X5_iIi-36" edge="1">
          <mxGeometry relative="1" as="geometry">
            <mxPoint x="257.5" y="479.5700000000001" as="targetPoint" />
            <mxPoint x="522.5" y="479.57" as="sourcePoint" />
            <Array as="points">
              <mxPoint x="342.5" y="479.57" />
              <mxPoint x="445.5" y="479.57" />
            </Array>
          </mxGeometry>
        </mxCell>
        <mxCell id="fWN6U2PsKUXUR3X5_iIi-111" value="" style="edgeStyle=orthogonalEdgeStyle;html=1;verticalAlign=bottom;endArrow=none;endSize=8;strokeColor=#666666;rounded=1;entryDx=0;entryDy=0;endFill=0;dashed=1;entryX=0.5;entryY=0;exitX=0.5;exitY=1;exitDx=0;exitDy=0;" parent="1" source="fWN6U2PsKUXUR3X5_iIi-30" target="fWN6U2PsKUXUR3X5_iIi-32" edge="1">
          <mxGeometry relative="1" as="geometry">
            <mxPoint x="1380" y="806.5" as="targetPoint" />
            <mxPoint x="1380" y="756.5" as="sourcePoint" />
          </mxGeometry>
        </mxCell>
        <mxCell id="fWN6U2PsKUXUR3X5_iIi-112" value="fetch binary image, module image" style="text;html=1;strokeColor=none;fillColor=none;align=center;verticalAlign=middle;whiteSpace=wrap;rounded=0;" parent="1" vertex="1">
          <mxGeometry x="1149" y="833" width="235" height="30" as="geometry" />
        </mxCell>
        <mxCell id="fWN6U2PsKUXUR3X5_iIi-75" value="uploads binary image" style="text;html=1;strokeColor=none;fillColor=none;align=center;verticalAlign=middle;whiteSpace=wrap;rounded=0;" parent="1" vertex="1">
          <mxGeometry x="1320" y="645" width="150" height="30" as="geometry" />
        </mxCell>
        <mxCell id="93VO_P9OMc8iU-WbTYkY-5" value="&lt;font color=&quot;#ffffff&quot;&gt;10&lt;/font&gt;" style="ellipse;whiteSpace=wrap;html=1;aspect=fixed;fillColor=#0a6ec7;strokeColor=#0a6ec7;" parent="1" vertex="1">
          <mxGeometry x="1149" y="838" width="20" height="20" as="geometry" />
        </mxCell>
        <mxCell id="93VO_P9OMc8iU-WbTYkY-10" value="initiate" style="text;html=1;strokeColor=none;fillColor=none;align=center;verticalAlign=middle;whiteSpace=wrap;rounded=0;" parent="1" vertex="1">
          <mxGeometry x="290" y="289" width="60" height="30" as="geometry" />
        </mxCell>
        <mxCell id="93VO_P9OMc8iU-WbTYkY-12" value="&lt;font color=&quot;#ffffff&quot;&gt;3&lt;/font&gt;" style="ellipse;whiteSpace=wrap;html=1;aspect=fixed;fillColor=#0a6ec7;strokeColor=#0a6ec7;" parent="1" vertex="1">
          <mxGeometry x="270" y="292" width="20" height="20" as="geometry" />
        </mxCell>
        <mxCell id="93VO_P9OMc8iU-WbTYkY-14" value="&lt;font color=&quot;#ffffff&quot;&gt;7&lt;/font&gt;" style="ellipse;whiteSpace=wrap;html=1;aspect=fixed;fillColor=#0a6ec7;strokeColor=#0a6ec7;" parent="1" vertex="1">
          <mxGeometry x="1100" y="545" width="20" height="20" as="geometry" />
        </mxCell>
        <mxCell id="93VO_P9OMc8iU-WbTYkY-15" value="&lt;font color=&quot;#ffffff&quot;&gt;8&lt;/font&gt;" style="ellipse;whiteSpace=wrap;html=1;aspect=fixed;fillColor=#0a6ec7;strokeColor=#0a6ec7;" parent="1" vertex="1">
          <mxGeometry x="1290" y="655" width="20" height="20" as="geometry" />
        </mxCell>
        <mxCell id="JRshGmQCwWdGFa1VaoXA-4" value="validate release job" style="rounded=1;whiteSpace=wrap;html=1;arcSize=40;fontColor=#000000;fillColor=#FFFFFF;strokeColor=#666666;" parent="1" vertex="1">
          <mxGeometry x="330" y="150" width="120" height="40" as="geometry" />
        </mxCell>
        <mxCell id="JRshGmQCwWdGFa1VaoXA-5" value="bump&amp;nbsp;security&lt;br&gt;&amp;nbsp;scanner config job" style="rounded=1;whiteSpace=wrap;html=1;arcSize=40;fontColor=#000000;fillColor=#FFFFFF;strokeColor=#666666;" parent="1" vertex="1">
          <mxGeometry x="470" y="150" width="120" height="40" as="geometry" />
        </mxCell>
        <mxCell id="JRshGmQCwWdGFa1VaoXA-6" value="await for Prow jobs status job" style="rounded=1;whiteSpace=wrap;html=1;arcSize=40;fontColor=#000000;fillColor=#FFFFFF;strokeColor=#666666;" parent="1" vertex="1">
          <mxGeometry x="610" y="150" width="120" height="40" as="geometry" />
        </mxCell>
        <mxCell id="JRshGmQCwWdGFa1VaoXA-9" value="" style="edgeStyle=orthogonalEdgeStyle;html=1;verticalAlign=bottom;endArrow=none;endSize=8;strokeColor=#666666;rounded=1;endFill=0;dashed=1;entryX=0.5;entryY=0;entryDx=0;entryDy=0;" parent="1" source="JRshGmQCwWdGFa1VaoXA-4" target="JRshGmQCwWdGFa1VaoXA-69" edge="1">
          <mxGeometry relative="1" as="geometry">
            <mxPoint x="390" y="1040" as="targetPoint" />
            <mxPoint x="389.58" y="190" as="sourcePoint" />
            <Array as="points" />
          </mxGeometry>
        </mxCell>
        <mxCell id="JRshGmQCwWdGFa1VaoXA-8" value="" style="html=1;points=[];perimeter=orthogonalPerimeter;outlineConnect=0;targetShapes=umlLifeline;portConstraint=eastwest;newEdgeStyle={&quot;edgeStyle&quot;:&quot;elbowEdgeStyle&quot;,&quot;elbow&quot;:&quot;vertical&quot;,&quot;curved&quot;:0,&quot;rounded&quot;:0};" parent="1" vertex="1">
          <mxGeometry x="385" y="240" width="10" height="40" as="geometry" />
        </mxCell>
        <mxCell id="JRshGmQCwWdGFa1VaoXA-11" value="" style="edgeStyle=orthogonalEdgeStyle;html=1;verticalAlign=bottom;endArrow=none;endSize=8;strokeColor=#666666;rounded=1;entryX=0.5;entryY=0;entryDx=0;entryDy=0;endFill=0;dashed=1;" parent="1" source="fWN6U2PsKUXUR3X5_iIi-9" target="fWN6U2PsKUXUR3X5_iIi-13" edge="1">
          <mxGeometry relative="1" as="geometry">
            <mxPoint x="250" y="550" as="targetPoint" />
            <mxPoint x="250" y="190" as="sourcePoint" />
          </mxGeometry>
        </mxCell>
        <mxCell id="fWN6U2PsKUXUR3X5_iIi-36" value="" style="html=1;points=[];perimeter=orthogonalPerimeter;outlineConnect=0;targetShapes=umlLifeline;portConstraint=eastwest;newEdgeStyle={&quot;edgeStyle&quot;:&quot;elbowEdgeStyle&quot;,&quot;elbow&quot;:&quot;vertical&quot;,&quot;curved&quot;:0,&quot;rounded&quot;:0};" parent="1" vertex="1">
          <mxGeometry x="245" y="238.5" width="10" height="761.5" as="geometry" />
        </mxCell>
        <mxCell id="JRshGmQCwWdGFa1VaoXA-13" value="initiate" style="text;html=1;strokeColor=none;fillColor=none;align=center;verticalAlign=middle;whiteSpace=wrap;rounded=0;" parent="1" vertex="1">
          <mxGeometry x="290" y="210" width="60" height="30" as="geometry" />
        </mxCell>
        <mxCell id="JRshGmQCwWdGFa1VaoXA-14" value="&lt;font color=&quot;#ffffff&quot;&gt;2&lt;/font&gt;" style="ellipse;whiteSpace=wrap;html=1;aspect=fixed;fillColor=#0a6ec7;strokeColor=#0a6ec7;" parent="1" vertex="1">
          <mxGeometry x="270" y="213.5" width="20" height="20" as="geometry" />
        </mxCell>
        <mxCell id="JRshGmQCwWdGFa1VaoXA-15" value="" style="html=1;verticalAlign=bottom;endArrow=open;endSize=8;edgeStyle=elbowEdgeStyle;elbow=vertical;rounded=1;dashed=1;strokeColor=#666666;" parent="1" source="JRshGmQCwWdGFa1VaoXA-8" edge="1">
          <mxGeometry relative="1" as="geometry">
            <mxPoint x="255" y="280.5" as="targetPoint" />
            <Array as="points">
              <mxPoint x="308" y="280.5" />
            </Array>
            <mxPoint x="495" y="281" as="sourcePoint" />
          </mxGeometry>
        </mxCell>
        <mxCell id="JRshGmQCwWdGFa1VaoXA-16" value="returns result" style="text;html=1;strokeColor=none;fillColor=none;align=center;verticalAlign=middle;whiteSpace=wrap;rounded=0;" parent="1" vertex="1">
          <mxGeometry x="280" y="251.5" width="80" height="30" as="geometry" />
        </mxCell>
        <mxCell id="JRshGmQCwWdGFa1VaoXA-17" value="" style="edgeStyle=orthogonalEdgeStyle;html=1;verticalAlign=bottom;endArrow=none;endSize=8;strokeColor=#666666;rounded=1;endFill=0;dashed=1;entryX=0.5;entryY=0;entryDx=0;entryDy=0;" parent="1" source="JRshGmQCwWdGFa1VaoXA-5" target="JRshGmQCwWdGFa1VaoXA-68" edge="1">
          <mxGeometry relative="1" as="geometry">
            <mxPoint x="530" y="1040" as="targetPoint" />
            <mxPoint x="529.53" y="190" as="sourcePoint" />
          </mxGeometry>
        </mxCell>
        <mxCell id="JRshGmQCwWdGFa1VaoXA-21" value="" style="html=1;points=[];perimeter=orthogonalPerimeter;outlineConnect=0;targetShapes=umlLifeline;portConstraint=eastwest;newEdgeStyle={&quot;edgeStyle&quot;:&quot;elbowEdgeStyle&quot;,&quot;elbow&quot;:&quot;vertical&quot;,&quot;curved&quot;:0,&quot;rounded&quot;:0};" parent="1" vertex="1">
          <mxGeometry x="525" y="319" width="10" height="161" as="geometry" />
        </mxCell>
        <mxCell id="JRshGmQCwWdGFa1VaoXA-25" value="" style="html=1;verticalAlign=bottom;endArrow=open;endSize=8;edgeStyle=elbowEdgeStyle;elbow=vertical;rounded=1;dashed=1;strokeColor=#666666;" parent="1" target="fWN6U2PsKUXUR3X5_iIi-5" edge="1">
          <mxGeometry relative="1" as="geometry">
            <mxPoint x="120" y="400" as="targetPoint" />
            <Array as="points">
              <mxPoint x="110" y="399" />
            </Array>
            <mxPoint x="525" y="399" as="sourcePoint" />
          </mxGeometry>
        </mxCell>
        <mxCell id="JRshGmQCwWdGFa1VaoXA-26" value="returns PR to approve" style="text;html=1;strokeColor=none;fillColor=none;align=center;verticalAlign=middle;whiteSpace=wrap;rounded=0;" parent="1" vertex="1">
          <mxGeometry x="280" y="369" width="120" height="30" as="geometry" />
        </mxCell>
        <mxCell id="JRshGmQCwWdGFa1VaoXA-28" value="" style="edgeStyle=orthogonalEdgeStyle;rounded=1;orthogonalLoop=1;jettySize=auto;html=1;strokeColor=#666666;exitX=1.023;exitY=0.913;exitDx=0;exitDy=0;exitPerimeter=0;" parent="1" edge="1">
          <mxGeometry relative="1" as="geometry">
            <Array as="points">
              <mxPoint x="215" y="440.17" />
            </Array>
            <mxPoint x="116.38000000000011" y="439.8400000000001" as="sourcePoint" />
            <mxPoint x="525" y="440.17" as="targetPoint" />
          </mxGeometry>
        </mxCell>
        <mxCell id="JRshGmQCwWdGFa1VaoXA-32" value="initiates" style="text;html=1;strokeColor=none;fillColor=none;align=center;verticalAlign=middle;whiteSpace=wrap;rounded=0;" parent="1" vertex="1">
          <mxGeometry x="150" y="334" width="60" height="30" as="geometry" />
        </mxCell>
        <mxCell id="JRshGmQCwWdGFa1VaoXA-33" value="&lt;font color=&quot;#ffffff&quot;&gt;1&lt;/font&gt;" style="ellipse;whiteSpace=wrap;html=1;aspect=fixed;fillColor=#0a6ec7;strokeColor=#0a6ec7;" parent="1" vertex="1">
          <mxGeometry x="130" y="337.5" width="20" height="20" as="geometry" />
        </mxCell>
        <mxCell id="JRshGmQCwWdGFa1VaoXA-34" value="approves PR" style="text;html=1;strokeColor=none;fillColor=none;align=center;verticalAlign=middle;whiteSpace=wrap;rounded=0;" parent="1" vertex="1">
          <mxGeometry x="150" y="407.57" width="80" height="30" as="geometry" />
        </mxCell>
        <mxCell id="JRshGmQCwWdGFa1VaoXA-35" value="&lt;font color=&quot;#ffffff&quot;&gt;4&lt;/font&gt;" style="ellipse;whiteSpace=wrap;html=1;aspect=fixed;fillColor=#0a6ec7;strokeColor=#0a6ec7;" parent="1" vertex="1">
          <mxGeometry x="130" y="411.07" width="20" height="20" as="geometry" />
        </mxCell>
        <mxCell id="JRshGmQCwWdGFa1VaoXA-36" value="returns result" style="text;html=1;strokeColor=none;fillColor=none;align=center;verticalAlign=middle;whiteSpace=wrap;rounded=0;" parent="1" vertex="1">
          <mxGeometry x="280" y="450" width="80" height="30" as="geometry" />
        </mxCell>
        <mxCell id="JRshGmQCwWdGFa1VaoXA-37" value="create tag and draft release" style="text;html=1;strokeColor=none;fillColor=none;align=center;verticalAlign=middle;whiteSpace=wrap;rounded=0;" parent="1" vertex="1">
          <mxGeometry x="365" y="500" width="170" height="30" as="geometry" />
        </mxCell>
        <mxCell id="JRshGmQCwWdGFa1VaoXA-38" value="&lt;font color=&quot;#ffffff&quot;&gt;5&lt;/font&gt;" style="ellipse;whiteSpace=wrap;html=1;aspect=fixed;fillColor=#0a6ec7;strokeColor=#0a6ec7;" parent="1" vertex="1">
          <mxGeometry x="345" y="503" width="20" height="20" as="geometry" />
        </mxCell>
        <mxCell id="JRshGmQCwWdGFa1VaoXA-40" value="" style="edgeStyle=orthogonalEdgeStyle;html=1;verticalAlign=bottom;endArrow=none;endSize=8;strokeColor=#666666;rounded=1;endFill=0;dashed=1;exitX=0.5;exitY=1;exitDx=0;exitDy=0;entryX=0.5;entryY=0;entryDx=0;entryDy=0;" parent="1" source="JRshGmQCwWdGFa1VaoXA-49" target="JRshGmQCwWdGFa1VaoXA-67" edge="1">
          <mxGeometry relative="1" as="geometry">
            <mxPoint x="670" y="1040" as="targetPoint" />
            <mxPoint x="669.58" y="202.57" as="sourcePoint" />
          </mxGeometry>
        </mxCell>
        <mxCell id="fWN6U2PsKUXUR3X5_iIi-54" value="" style="html=1;points=[];perimeter=orthogonalPerimeter;outlineConnect=0;targetShapes=umlLifeline;portConstraint=eastwest;newEdgeStyle={&quot;edgeStyle&quot;:&quot;elbowEdgeStyle&quot;,&quot;elbow&quot;:&quot;vertical&quot;,&quot;curved&quot;:0,&quot;rounded&quot;:0};" parent="1" vertex="1">
          <mxGeometry x="805" y="600.5" width="10" height="80" as="geometry" />
        </mxCell>
        <mxCell id="JRshGmQCwWdGFa1VaoXA-44" value="" style="edgeStyle=elbowEdgeStyle;rounded=1;orthogonalLoop=1;jettySize=auto;html=1;elbow=vertical;strokeColor=#666666;" parent="1" target="fWN6U2PsKUXUR3X5_iIi-54" edge="1">
          <mxGeometry relative="1" as="geometry">
            <mxPoint x="255" y="601" as="sourcePoint" />
            <mxPoint x="525" y="600.5" as="targetPoint" />
          </mxGeometry>
        </mxCell>
        <mxCell id="JRshGmQCwWdGFa1VaoXA-45" value="initiate" style="text;html=1;strokeColor=none;fillColor=none;align=center;verticalAlign=middle;whiteSpace=wrap;rounded=0;" parent="1" vertex="1">
          <mxGeometry x="465" y="570.5" width="60" height="30" as="geometry" />
        </mxCell>
        <mxCell id="JRshGmQCwWdGFa1VaoXA-46" value="&lt;font color=&quot;#ffffff&quot;&gt;6&lt;/font&gt;" style="ellipse;whiteSpace=wrap;html=1;aspect=fixed;fillColor=#0a6ec7;strokeColor=#0a6ec7;" parent="1" vertex="1">
          <mxGeometry x="445" y="573.5" width="20" height="20" as="geometry" />
        </mxCell>
        <mxCell id="JRshGmQCwWdGFa1VaoXA-47" value="" style="html=1;verticalAlign=bottom;endArrow=open;endSize=8;edgeStyle=elbowEdgeStyle;elbow=vertical;rounded=1;dashed=1;strokeColor=#666666;" parent="1" source="fWN6U2PsKUXUR3X5_iIi-54" target="fWN6U2PsKUXUR3X5_iIi-36" edge="1">
          <mxGeometry relative="1" as="geometry">
            <mxPoint x="480" y="680.36" as="targetPoint" />
            <mxPoint x="800" y="680" as="sourcePoint" />
            <Array as="points">
              <mxPoint x="567.5" y="679.9300000000001" />
              <mxPoint x="670.5" y="679.9300000000001" />
            </Array>
          </mxGeometry>
        </mxCell>
        <mxCell id="JRshGmQCwWdGFa1VaoXA-48" value="returns result" style="text;html=1;strokeColor=none;fillColor=none;align=center;verticalAlign=middle;whiteSpace=wrap;rounded=0;" parent="1" vertex="1">
          <mxGeometry x="280" y="650.5" width="80" height="30" as="geometry" />
        </mxCell>
        <mxCell id="JRshGmQCwWdGFa1VaoXA-50" value="" style="edgeStyle=elbowEdgeStyle;rounded=1;orthogonalLoop=1;jettySize=auto;html=1;elbow=vertical;strokeColor=#666666;" parent="1" source="fWN6U2PsKUXUR3X5_iIi-36" target="JRshGmQCwWdGFa1VaoXA-49" edge="1">
          <mxGeometry relative="1" as="geometry">
            <mxPoint x="300" y="722" as="sourcePoint" />
            <mxPoint x="360" y="721.5" as="targetPoint" />
            <Array as="points">
              <mxPoint x="350" y="722" />
            </Array>
          </mxGeometry>
        </mxCell>
        <mxCell id="JRshGmQCwWdGFa1VaoXA-51" value="" style="html=1;verticalAlign=bottom;endArrow=open;endSize=8;edgeStyle=elbowEdgeStyle;elbow=vertical;rounded=1;dashed=1;strokeColor=#666666;" parent="1" source="JRshGmQCwWdGFa1VaoXA-49" target="fWN6U2PsKUXUR3X5_iIi-36" edge="1">
          <mxGeometry relative="1" as="geometry">
            <mxPoint x="340" y="800" as="targetPoint" />
            <mxPoint x="635" y="801" as="sourcePoint" />
            <Array as="points">
              <mxPoint x="410" y="801" />
              <mxPoint x="505.5" y="800.9300000000001" />
            </Array>
          </mxGeometry>
        </mxCell>
        <mxCell id="JRshGmQCwWdGFa1VaoXA-52" value="" style="edgeStyle=orthogonalEdgeStyle;html=1;verticalAlign=bottom;endArrow=none;endSize=8;strokeColor=#666666;rounded=1;endFill=0;dashed=1;exitX=0.5;exitY=1;exitDx=0;exitDy=0;" parent="1" source="JRshGmQCwWdGFa1VaoXA-6" target="JRshGmQCwWdGFa1VaoXA-49" edge="1">
          <mxGeometry relative="1" as="geometry">
            <mxPoint x="670" y="880" as="targetPoint" />
            <mxPoint x="670" y="190" as="sourcePoint" />
            <Array as="points">
              <mxPoint x="670" y="610" />
              <mxPoint x="670" y="610" />
            </Array>
          </mxGeometry>
        </mxCell>
        <mxCell id="JRshGmQCwWdGFa1VaoXA-49" value="" style="html=1;points=[];perimeter=orthogonalPerimeter;outlineConnect=0;targetShapes=umlLifeline;portConstraint=eastwest;newEdgeStyle={&quot;edgeStyle&quot;:&quot;elbowEdgeStyle&quot;,&quot;elbow&quot;:&quot;vertical&quot;,&quot;curved&quot;:0,&quot;rounded&quot;:0};" parent="1" vertex="1">
          <mxGeometry x="665" y="721.5" width="10" height="80" as="geometry" />
        </mxCell>
        <mxCell id="JRshGmQCwWdGFa1VaoXA-53" value="initiate" style="text;html=1;strokeColor=none;fillColor=none;align=center;verticalAlign=middle;whiteSpace=wrap;rounded=0;" parent="1" vertex="1">
          <mxGeometry x="465" y="691.5" width="60" height="30" as="geometry" />
        </mxCell>
        <mxCell id="JRshGmQCwWdGFa1VaoXA-54" value="&lt;font color=&quot;#ffffff&quot;&gt;6&lt;/font&gt;" style="ellipse;whiteSpace=wrap;html=1;aspect=fixed;fillColor=#0a6ec7;strokeColor=#0a6ec7;" parent="1" vertex="1">
          <mxGeometry x="445" y="694.5" width="20" height="20" as="geometry" />
        </mxCell>
        <mxCell id="JRshGmQCwWdGFa1VaoXA-55" value="returns result" style="text;html=1;strokeColor=none;fillColor=none;align=center;verticalAlign=middle;whiteSpace=wrap;rounded=0;" parent="1" vertex="1">
          <mxGeometry x="280" y="771.5" width="80" height="30" as="geometry" />
        </mxCell>
        <mxCell id="JRshGmQCwWdGFa1VaoXA-58" value="" style="edgeStyle=orthogonalEdgeStyle;html=1;verticalAlign=bottom;endArrow=none;endSize=8;strokeColor=#666666;rounded=1;entryX=0.5;entryY=0;entryDx=0;entryDy=0;endFill=0;dashed=1;" parent="1" source="fWN6U2PsKUXUR3X5_iIi-18" target="fWN6U2PsKUXUR3X5_iIi-20" edge="1">
          <mxGeometry relative="1" as="geometry">
            <mxPoint x="950" y="1050" as="targetPoint" />
            <mxPoint x="950" y="190" as="sourcePoint" />
          </mxGeometry>
        </mxCell>
        <mxCell id="fWN6U2PsKUXUR3X5_iIi-98" value="" style="html=1;points=[];perimeter=orthogonalPerimeter;outlineConnect=0;targetShapes=umlLifeline;portConstraint=eastwest;newEdgeStyle={&quot;edgeStyle&quot;:&quot;elbowEdgeStyle&quot;,&quot;elbow&quot;:&quot;vertical&quot;,&quot;curved&quot;:0,&quot;rounded&quot;:0};" parent="1" vertex="1">
          <mxGeometry x="945" y="840" width="10" height="120" as="geometry" />
        </mxCell>
        <mxCell id="JRshGmQCwWdGFa1VaoXA-59" value="" style="edgeStyle=elbowEdgeStyle;rounded=1;orthogonalLoop=1;jettySize=auto;html=1;elbow=vertical;strokeColor=#666666;" parent="1" target="fWN6U2PsKUXUR3X5_iIi-98" edge="1">
          <mxGeometry relative="1" as="geometry">
            <mxPoint x="255" y="840" as="sourcePoint" />
            <mxPoint x="930" y="840" as="targetPoint" />
            <Array as="points">
              <mxPoint x="350" y="840" />
            </Array>
          </mxGeometry>
        </mxCell>
        <mxCell id="JRshGmQCwWdGFa1VaoXA-60" value="initiate" style="text;html=1;strokeColor=none;fillColor=none;align=center;verticalAlign=middle;whiteSpace=wrap;rounded=0;" parent="1" vertex="1">
          <mxGeometry x="570" y="810" width="60" height="30" as="geometry" />
        </mxCell>
        <mxCell id="JRshGmQCwWdGFa1VaoXA-61" value="&lt;font color=&quot;#ffffff&quot;&gt;9&lt;/font&gt;" style="ellipse;whiteSpace=wrap;html=1;aspect=fixed;fillColor=#0a6ec7;strokeColor=#0a6ec7;" parent="1" vertex="1">
          <mxGeometry x="550" y="813" width="20" height="20" as="geometry" />
        </mxCell>
        <mxCell id="JRshGmQCwWdGFa1VaoXA-62" value="" style="html=1;verticalAlign=bottom;endArrow=open;endSize=8;edgeStyle=elbowEdgeStyle;elbow=vertical;rounded=1;dashed=1;strokeColor=#666666;" parent="1" source="fWN6U2PsKUXUR3X5_iIi-98" target="fWN6U2PsKUXUR3X5_iIi-36" edge="1">
          <mxGeometry relative="1" as="geometry">
            <mxPoint x="400" y="960" as="targetPoint" />
            <mxPoint x="810" y="960" as="sourcePoint" />
            <Array as="points">
              <mxPoint x="555" y="960" />
              <mxPoint x="650.5" y="959.9300000000001" />
            </Array>
          </mxGeometry>
        </mxCell>
        <mxCell id="JRshGmQCwWdGFa1VaoXA-63" value="returns result" style="text;html=1;strokeColor=none;fillColor=none;align=center;verticalAlign=middle;whiteSpace=wrap;rounded=0;" parent="1" vertex="1">
          <mxGeometry x="280" y="930" width="80" height="30" as="geometry" />
        </mxCell>
        <mxCell id="JRshGmQCwWdGFa1VaoXA-64" value="" style="edgeStyle=elbowEdgeStyle;rounded=1;orthogonalLoop=1;jettySize=auto;html=1;elbow=vertical;strokeColor=#666666;" parent="1" source="fWN6U2PsKUXUR3X5_iIi-36" edge="1">
          <mxGeometry relative="1" as="geometry">
            <mxPoint x="265" y="1000" as="sourcePoint" />
            <mxPoint x="1090" y="1000" as="targetPoint" />
            <Array as="points">
              <mxPoint x="360" y="1000" />
            </Array>
          </mxGeometry>
        </mxCell>
        <mxCell id="JRshGmQCwWdGFa1VaoXA-65" value="publish release" style="text;html=1;strokeColor=none;fillColor=none;align=center;verticalAlign=middle;whiteSpace=wrap;rounded=0;" parent="1" vertex="1">
          <mxGeometry x="695" y="970" width="110" height="30" as="geometry" />
        </mxCell>
        <mxCell id="JRshGmQCwWdGFa1VaoXA-66" value="&lt;font color=&quot;#ffffff&quot;&gt;11&lt;/font&gt;" style="ellipse;whiteSpace=wrap;html=1;aspect=fixed;fillColor=#0a6ec7;strokeColor=#0a6ec7;" parent="1" vertex="1">
          <mxGeometry x="680" y="975" width="20" height="20" as="geometry" />
        </mxCell>
        <mxCell id="JRshGmQCwWdGFa1VaoXA-67" value="await for Prow jobs status job" style="rounded=1;whiteSpace=wrap;html=1;arcSize=40;fontColor=#000000;fillColor=#FFFFFF;strokeColor=#666666;" parent="1" vertex="1">
          <mxGeometry x="610" y="1020" width="120" height="40" as="geometry" />
        </mxCell>
        <mxCell id="JRshGmQCwWdGFa1VaoXA-68" value="bump&amp;nbsp;security&lt;br&gt;&amp;nbsp;scanner config job" style="rounded=1;whiteSpace=wrap;html=1;arcSize=40;fontColor=#000000;fillColor=#FFFFFF;strokeColor=#666666;" parent="1" vertex="1">
          <mxGeometry x="470" y="1020" width="120" height="40" as="geometry" />
        </mxCell>
        <mxCell id="JRshGmQCwWdGFa1VaoXA-69" value="validate release job" style="rounded=1;whiteSpace=wrap;html=1;arcSize=40;fontColor=#000000;fillColor=#FFFFFF;strokeColor=#666666;" parent="1" vertex="1">
          <mxGeometry x="330" y="1020" width="120" height="40" as="geometry" />
        </mxCell>
      </root>
    </mxGraphModel>
  </diagram>
</mxfile>
